<?xml version="1.0" standalone="no"?>
<!DOCTYPE svg PUBLIC "-//W3C//DTD SVG 20010904//EN"
 "http://www.w3.org/TR/2001/REC-SVG-20010904/DTD/svg10.dtd">
<svg version="1.0" xmlns="http://www.w3.org/2000/svg"
 width="736.000000pt" height="552.000000pt" viewBox="0 0 736.000000 552.000000"
 preserveAspectRatio="xMidYMid meet">

<g transform="translate(0.000000,552.000000) scale(0.100000,-0.100000)"
fill="#8E4EC6" stroke="none">
<path d="M2772 4295 c-160 -45 -286 -196 -343 -410 -28 -105 -31 -344 -6 -482
38 -203 114 -420 226 -642 l60 -120 -82 -45 c-238 -130 -386 -279 -465 -468
-23 -54 -27 -78 -27 -168 0 -99 2 -109 34 -175 65 -133 202 -233 386 -281 109
-29 384 -26 527 4 205 44 398 115 612 224 l107 55 31 -61 c110 -221 274 -393
455 -479 65 -31 73 -32 189 -32 117 0 122 1 188 34 123 63 221 197 268 370 32
113 31 393 -1 541 -42 198 -135 447 -235 636 l-43 80 66 34 c181 94 345 234
426 365 61 99 86 179 86 279 0 225 -155 390 -429 458 -114 28 -330 30 -477 4
-194 -35 -435 -119 -646 -228 -57 -29 -107 -53 -111 -53 -4 0 -24 32 -44 70
-90 171 -247 353 -365 423 -124 73 -273 99 -387 67z m547 -381 c67 -33 221
-166 221 -190 0 -5 -51 -40 -113 -77 -63 -38 -166 -106 -230 -152 -132 -94
-120 -98 -137 40 -22 179 22 358 98 400 43 23 84 18 161 -21z m1391 -546 c154
-37 195 -115 129 -247 -34 -67 -178 -229 -195 -218 -6 3 -32 42 -57 85 -26 44
-92 144 -146 223 -76 110 -96 146 -86 152 46 25 258 28 355 5z m-545 -79 c-72
-57 -209 -204 -259 -277 l-49 -71 30 -38 c54 -67 180 -265 231 -363 51 -95
137 -299 129 -306 -2 -3 -16 14 -32 35 -39 57 -198 208 -278 265 l-68 49 -32
-24 c-182 -135 -453 -289 -607 -343 l-75 -27 50 42 c139 117 310 325 290 353
-59 81 -194 290 -234 363 -54 98 -125 258 -137 308 -6 27 -4 26 33 -20 59 -74
200 -205 273 -255 58 -40 65 -42 86 -29 12 8 80 53 151 101 145 98 280 172
415 228 114 47 135 50 83 9z m-1375 -780 c35 -60 102 -162 147 -225 46 -64 83
-120 83 -124 0 -30 -305 -34 -392 -6 -182 59 -180 190 5 383 44 46 83 83 86
82 3 0 35 -49 71 -110z m1509 -484 c23 -157 7 -305 -44 -391 -61 -105 -188
-79 -351 70 -100 90 -102 81 39 168 67 42 169 110 227 151 58 42 108 76 111
76 4 1 12 -33 18 -74z"/>
</g>
</svg>
